<svg version="1.1" id="Layer_1" xmlns="http://www.w3.org/2000/svg" xmlns:xlink="http://www.w3.org/1999/xlink" x="0px" y="0px"
	 width="100%" viewBox="0 0 225 225" enable-background="new 0 0 225 225" xml:space="preserve">
<path fill="#000000" opacity="1.000000" stroke="none" 
	d="
M125.000000,226.000000 
	C83.333336,226.000000 42.166672,226.000000 1.000005,226.000000 
	C1.000004,151.000000 1.000004,76.000015 1.000002,1.000016 
	C75.999992,1.000010 150.999985,1.000010 225.999969,1.000005 
	C225.999985,75.999985 225.999985,150.999969 226.000000,225.999969 
	C192.500000,226.000000 159.000000,226.000000 125.000000,226.000000 
M58.545689,23.005413 
	C49.211208,29.329645 40.677994,36.421490 33.252319,45.086346 
	C17.410854,63.571404 9.344635,84.977379 8.098662,108.972885 
	C7.293378,124.481430 9.996606,139.582565 15.885624,154.060059 
	C25.163925,176.869720 40.943066,193.869690 62.143139,206.018280 
	C74.554367,213.130447 88.010849,216.456787 102.210167,218.231888 
	C116.100250,219.968384 129.488480,218.397964 142.711472,214.995285 
	C164.586853,209.366074 181.918930,196.713593 196.234695,179.365921 
	C210.689941,161.849274 217.202591,141.456680 218.900940,119.334572 
	C219.895142,106.384644 217.909988,93.546906 213.919800,81.193314 
	C206.681091,58.782215 192.756821,41.238838 173.893112,27.355446 
	C161.882858,18.516104 148.477585,12.860388 133.968597,10.181002 
	C121.841476,7.941474 109.478409,6.906478 97.181488,9.111848 
	C83.787209,11.514023 70.936295,15.631454 58.545689,23.005413 
z"/>
<path fill="#8E24AA" opacity="1.000000" stroke="none" 
	d="
M58.813000,22.750380 
	C70.936295,15.631454 83.787209,11.514023 97.181488,9.111848 
	C109.478409,6.906478 121.841476,7.941474 133.968597,10.181002 
	C148.477585,12.860388 161.882858,18.516104 173.893112,27.355446 
	C192.756821,41.238838 206.681091,58.782215 213.919800,81.193314 
	C217.909988,93.546906 219.895142,106.384644 218.900940,119.334572 
	C217.202591,141.456680 210.689941,161.849274 196.234695,179.365921 
	C181.918930,196.713593 164.586853,209.366074 142.711472,214.995285 
	C129.488480,218.397964 116.100250,219.968384 102.210167,218.231888 
	C88.010849,216.456787 74.554367,213.130447 62.143139,206.018280 
	C40.943066,193.869690 25.163925,176.869720 15.885624,154.060059 
	C9.996606,139.582565 7.293378,124.481430 8.098662,108.972885 
	C9.344635,84.977379 17.410854,63.571404 33.252319,45.086346 
	C40.677994,36.421490 49.211208,29.329645 58.813000,22.750380 
M64.528374,62.161896 
	C64.283119,62.460762 64.037865,62.759632 63.278660,63.695873 
	C63.189686,64.182388 63.023067,64.668861 63.022820,65.155418 
	C63.006763,96.865150 62.993553,128.574905 63.040371,160.284561 
	C63.042187,161.515091 63.631313,162.744751 64.335320,164.670120 
	C70.912277,166.875244 77.361511,165.836456 83.872704,164.225372 
	C83.872704,158.938828 83.872704,153.972229 83.982964,148.073441 
	C84.134491,128.875153 83.792801,109.662766 84.175468,90.471092 
	C84.947365,90.414246 85.719261,90.357407 86.491158,90.300560 
	C87.733635,95.895676 88.976112,101.490799 90.262634,107.857147 
	C92.439148,117.156761 94.615662,126.456367 96.995392,136.587738 
	C99.048630,145.747299 101.101875,154.906876 103.247704,164.869522 
	C110.149117,166.231018 117.034935,167.159424 123.953903,163.311325 
	C126.023170,153.849289 128.092438,144.387238 130.756790,134.478882 
	C132.840210,124.605301 134.923630,114.731728 136.950653,104.072632 
	C138.843918,96.710602 140.737183,89.348564 142.630447,81.986526 
	C142.797760,82.038513 142.965073,82.090492 143.132385,82.142471 
	C143.132385,105.098831 143.132385,128.055206 143.033737,151.911270 
	C143.540146,155.579666 144.046555,159.248077 144.129471,163.562286 
	C144.510437,164.319397 144.872070,165.723160 145.275314,165.735214 
	C150.201675,165.882477 155.135941,165.889343 160.063171,165.752930 
	C160.805847,165.732361 161.523178,164.796158 161.980545,164.140854 
	C161.980545,164.140854 162.249146,164.298370 162.703873,164.255081 
	C162.703873,164.255081 163.095413,164.016479 163.651474,163.394760 
	C163.767349,162.581421 163.984085,161.768127 163.984543,160.954712 
	C164.002014,129.575836 164.008972,98.196915 163.965912,66.818077 
	C163.964188,65.563873 163.462738,64.310356 162.869476,62.576202 
	C162.560883,62.349499 162.252274,62.122795 161.343521,61.337646 
	C156.264648,61.225151 151.183212,60.960915 146.107666,61.046379 
	C141.754639,61.119678 137.408325,61.593048 132.518799,62.216084 
	C132.380920,62.810722 132.243042,63.405361 132.005753,64.801491 
	C131.130188,68.602814 130.259644,72.405312 129.378021,76.205231 
	C127.534828,84.149712 125.685783,92.092834 123.341194,100.583885 
	C121.606171,108.378357 119.871147,116.172836 118.052612,124.786285 
	C116.885635,129.081970 117.210106,134.067581 112.520317,137.446594 
	C111.508209,133.162567 110.654121,129.547409 109.800873,125.247299 
	C109.466682,123.794502 109.156227,122.335770 108.794212,120.889938 
	C107.203514,114.536949 105.597916,108.187675 103.983772,101.040436 
	C103.659790,99.620979 103.351128,98.197823 103.009407,96.782654 
	C100.359322,85.807739 97.702843,74.834373 95.080772,63.242111 
	C95.053230,62.830185 95.025681,62.418259 94.416420,61.405437 
	C88.663361,61.270290 82.908890,60.992123 77.157722,61.048729 
	C73.114990,61.088524 69.076759,61.583981 64.528374,62.161896 
z"/>
<path fill="#000000" opacity="1.000000" stroke="none" 
	d="
M123.839142,100.036522 
	C125.685783,92.092834 127.534828,84.149712 129.378021,76.205231 
	C130.259644,72.405312 131.130188,68.602814 132.476227,64.398422 
	C142.022949,62.247368 151.023438,62.302090 159.945465,65.525284 
	C160.647064,68.357590 161.818466,70.779587 161.881622,73.230141 
	C162.093796,81.461388 161.910950,89.702827 161.515427,97.971069 
	C157.912079,99.732353 154.557144,101.279442 151.456100,103.230133 
	C144.091003,107.863106 144.265366,113.128319 151.691620,117.259026 
	C154.622131,118.889069 155.007385,120.622513 152.378876,123.384529 
	C150.379532,125.485428 148.852249,128.430283 148.120377,131.259735 
	C146.638565,136.988434 145.885254,142.903015 144.706680,148.715622 
	C144.536911,149.552902 143.674347,150.249725 143.132385,151.011566 
	C143.132385,128.055206 143.132385,105.098831 143.132385,82.142471 
	C142.965073,82.090492 142.797760,82.038513 142.630447,81.986526 
	C140.737183,89.348564 138.843918,96.710602 136.571320,104.528923 
	C132.768082,104.321320 129.297119,103.824562 125.951500,102.882645 
	C125.051613,102.629280 124.532860,101.022194 123.839142,100.036522 
z"/>
<path fill="#000000" opacity="1.000000" stroke="none" 
	d="
M95.048347,63.860527 
	C97.702843,74.834373 100.359322,85.807739 103.009407,96.782654 
	C103.351128,98.197823 103.659790,99.620979 103.562256,101.512016 
	C98.089676,101.800941 93.556190,102.929070 90.218590,107.085915 
	C88.976112,101.490799 87.733635,95.895676 86.491158,90.300560 
	C85.719261,90.357407 84.947365,90.414246 84.175468,90.471092 
	C83.792801,109.662766 84.134491,128.875153 83.573380,148.360779 
	C82.777847,146.431992 82.657806,144.127823 81.958549,142.015411 
	C79.346260,134.123856 82.629753,123.636055 72.055771,119.196152 
	C72.009422,119.176689 72.077965,118.883644 72.127045,118.338699 
	C72.756790,118.237732 73.656792,118.354744 74.177490,117.965012 
	C76.509819,116.219261 79.718742,114.748260 80.728127,112.376625 
	C81.796104,109.867302 82.049919,105.890213 78.433342,104.128075 
	C74.087303,102.010521 69.561646,100.261612 65.127365,98.358932 
	C65.127365,89.196823 65.127365,80.081749 65.077393,70.975693 
	C65.027412,70.984711 65.040184,71.085464 65.369980,70.951920 
	C65.801727,70.362717 65.903679,69.907051 66.086578,69.303589 
	C66.223999,68.914314 66.164024,68.706421 66.258720,68.252045 
	C69.365402,66.343559 72.200974,64.715164 75.500854,63.048012 
	C82.326218,63.293018 88.687279,63.576771 95.048347,63.860527 
z"/>
<path fill="#FCFBFD" opacity="1.000000" stroke="none" 
	d="
M65.127365,70.966675 
	C65.127365,80.081749 65.127365,89.196823 65.127365,98.358932 
	C69.561646,100.261612 74.087303,102.010521 78.433342,104.128075 
	C82.049919,105.890213 81.796104,109.867302 80.728127,112.376625 
	C79.718742,114.748260 76.509819,116.219261 74.177490,117.965012 
	C73.656792,118.354744 72.756790,118.237732 72.127045,118.338699 
	C72.077965,118.883644 72.009422,119.176689 72.055771,119.196152 
	C82.629753,123.636055 79.346260,134.123856 81.958549,142.015411 
	C82.657806,144.127823 82.777847,146.431992 83.518250,148.826874 
	C83.872704,153.972229 83.872704,158.938828 83.872704,164.225372 
	C77.361511,165.836456 70.912277,166.875244 64.175087,163.856812 
	C64.020760,133.920242 64.009712,104.796936 64.079201,75.673820 
	C64.082947,74.103951 64.762444,72.535683 65.127365,70.966675 
z"/>
<path fill="#FFFFFF" opacity="1.000000" stroke="none" 
	d="
M143.083069,151.461426 
	C143.674347,150.249725 144.536911,149.552902 144.706680,148.715622 
	C145.885254,142.903015 146.638565,136.988434 148.120377,131.259735 
	C148.852249,128.430283 150.379532,125.485428 152.378876,123.384529 
	C155.007385,120.622513 154.622131,118.889069 151.691620,117.259026 
	C144.265366,113.128319 144.091003,107.863106 151.456100,103.230133 
	C154.557144,101.279442 157.912079,99.732353 161.752075,98.009727 
	C162.352570,98.017670 162.831985,98.031670 162.885590,98.495514 
	C162.906464,120.302711 162.873718,141.646057 162.647064,163.157593 
	C162.385147,163.649963 162.317139,163.974167 162.249146,164.298370 
	C162.249146,164.298370 161.980545,164.140854 161.638901,164.092285 
	C155.715820,163.667984 150.134384,163.292221 144.552948,162.916473 
	C144.046555,159.248077 143.540146,155.579666 143.083069,151.461426 
z"/>
<path fill="#000000" opacity="1.000000" stroke="none" 
	d="
M130.161713,134.925201 
	C128.092438,144.387238 126.023170,153.849289 123.495621,163.702957 
	C121.530441,163.933884 120.502762,164.110214 119.150169,162.223679 
	C116.982574,159.200394 113.291397,157.227661 109.320854,160.914307 
	C108.327957,161.836212 106.335533,161.671432 104.811996,162.044846 
	C104.619461,162.092041 104.485001,162.376251 104.217247,162.665619 
	C105.070915,162.947266 105.821335,163.194839 106.571762,163.442429 
	C106.542000,163.650436 106.512238,163.858429 106.482483,164.066437 
	C105.373360,164.066437 104.264236,164.066437 103.155113,164.066437 
	C101.101875,154.906876 99.048630,145.747299 96.940445,135.803436 
	C97.188080,134.694077 97.453705,134.135925 97.799141,134.081146 
	C100.409912,133.667206 103.031395,133.110306 105.658920,133.056458 
	C111.133377,132.944275 107.916397,128.341873 109.398697,126.204948 
	C109.484726,126.080917 109.664101,126.021645 109.800034,125.932251 
	C110.654121,129.547409 111.508209,133.162567 112.520317,137.446594 
	C117.210106,134.067581 116.885635,129.081970 118.433273,124.245697 
	C119.060532,123.582130 119.297485,123.419594 119.558533,123.355934 
	C119.660820,123.330994 119.942314,123.546707 119.931068,123.620781 
	C118.963440,129.997406 122.632790,132.693024 128.104568,134.012192 
	C128.821960,134.185135 129.477524,134.614563 130.161713,134.925201 
z"/>
<path fill="#FDFCFD" opacity="1.000000" stroke="none" 
	d="
M109.800446,125.589767 
	C109.664101,126.021645 109.484726,126.080917 109.398697,126.204948 
	C107.916397,128.341873 111.133377,132.944275 105.658920,133.056458 
	C103.031395,133.110306 100.409912,133.667206 97.799141,134.081146 
	C97.453705,134.135925 97.188080,134.694077 96.838837,135.387543 
	C94.615662,126.456367 92.439148,117.156761 90.240616,107.471527 
	C93.556190,102.929070 98.089676,101.800941 103.569229,101.910324 
	C105.597916,108.187675 107.203514,114.536949 108.794212,120.889938 
	C109.156227,122.335770 109.466682,123.794502 109.800446,125.589767 
z"/>
<path fill="#FDFBFD" opacity="1.000000" stroke="none" 
	d="
M130.459259,134.702042 
	C129.477524,134.614563 128.821960,134.185135 128.104568,134.012192 
	C122.632790,132.693024 118.963440,129.997406 119.931068,123.620781 
	C119.942314,123.546707 119.660820,123.330994 119.558533,123.355934 
	C119.297485,123.419594 119.060532,123.582130 118.475037,123.836205 
	C119.871147,116.172836 121.606171,108.378357 123.590164,100.310204 
	C124.532860,101.022194 125.051613,102.629280 125.951500,102.882645 
	C129.297119,103.824562 132.768082,104.321320 136.599518,104.921677 
	C134.923630,114.731728 132.840210,124.605301 130.459259,134.702042 
z"/>
<path fill="#8500A4" opacity="1.000000" stroke="none" 
	d="
M65.077393,70.975693 
	C64.762444,72.535683 64.082947,74.103951 64.079201,75.673820 
	C64.009712,104.796936 64.020760,133.920242 63.980812,163.509171 
	C63.631313,162.744751 63.042187,161.515091 63.040371,160.284561 
	C62.993553,128.574905 63.006763,96.865150 63.022820,65.155418 
	C63.023067,64.668861 63.189686,64.182388 63.648331,63.434601 
	C64.018005,63.173325 64.190178,62.988007 64.131142,63.236534 
	C64.117165,63.649307 64.162224,63.813545 64.135902,64.415939 
	C64.705559,66.080109 65.346581,67.306114 65.987610,68.532120 
	C66.164024,68.706421 66.223999,68.914314 65.591690,69.284271 
	C65.023964,69.970329 65.032074,70.527893 65.040184,71.085464 
	C65.040184,71.085464 65.027412,70.984711 65.077393,70.975693 
z"/>
<path fill="#8500A4" opacity="1.000000" stroke="none" 
	d="
M162.840973,162.989410 
	C162.873718,141.646057 162.906464,120.302711 162.973083,98.031860 
	C162.958038,85.726791 162.909088,74.349228 162.928177,63.053745 
	C162.996201,63.135830 163.194122,63.056519 163.194122,63.056519 
	C163.462738,64.310356 163.964188,65.563873 163.965912,66.818077 
	C164.008972,98.196915 164.002014,129.575836 163.984543,160.954712 
	C163.984085,161.768127 163.767349,162.581421 163.338394,163.441772 
	C162.963867,163.322311 162.902435,163.155853 162.840973,162.989410 
z"/>
<path fill="#E7D8ED" opacity="1.000000" stroke="none" 
	d="
M103.201408,164.467987 
	C104.264236,164.066437 105.373360,164.066437 106.482483,164.066437 
	C106.512238,163.858429 106.542000,163.650436 106.571762,163.442429 
	C105.821335,163.194839 105.070915,162.947266 104.217247,162.665619 
	C104.485001,162.376251 104.619461,162.092041 104.811996,162.044846 
	C106.335533,161.671432 108.327957,161.836212 109.320854,160.914307 
	C113.291397,157.227661 116.982574,159.200394 119.150169,162.223679 
	C120.502762,164.110214 121.530441,163.933884 123.407753,164.112244 
	C117.034935,167.159424 110.149117,166.231018 103.201408,164.467987 
z"/>
<path fill="#CBA9D7" opacity="1.000000" stroke="none" 
	d="
M159.907501,65.128052 
	C151.023438,62.302090 142.022949,62.247368 132.525940,63.997673 
	C132.243042,63.405361 132.380920,62.810722 133.250732,62.095810 
	C143.303009,61.949055 152.623352,61.922573 161.943680,61.896091 
	C162.252274,62.122795 162.560883,62.349499 163.031799,62.816360 
	C163.194122,63.056519 162.996201,63.135830 162.601196,63.081810 
	C161.439957,63.727875 160.673721,64.427963 159.907501,65.128052 
z"/>
<path fill="#E9DAEE" opacity="1.000000" stroke="none" 
	d="
M144.341217,163.239380 
	C150.134384,163.292221 155.715820,163.667984 161.774750,164.163620 
	C161.523178,164.796158 160.805847,165.732361 160.063171,165.752930 
	C155.135941,165.889343 150.201675,165.882477 145.275314,165.735214 
	C144.872070,165.723160 144.510437,164.319397 144.341217,163.239380 
z"/>
<path fill="#890CA6" opacity="1.000000" stroke="none" 
	d="
M65.036514,61.875969 
	C69.076759,61.583981 73.114990,61.088524 77.157722,61.048729 
	C82.908890,60.992123 88.663361,61.270290 94.238937,61.701035 
	C87.652107,62.119965 81.242767,62.243294 74.392853,62.333149 
	C70.976257,62.331997 68.000237,62.364319 65.077164,62.267654 
	C65.130112,62.138664 65.036514,61.875969 65.036514,61.875969 
z"/>
<path fill="#890CA6" opacity="1.000000" stroke="none" 
	d="
M161.643600,61.616867 
	C152.623352,61.922573 143.303009,61.949055 133.520874,61.932518 
	C137.408325,61.593048 141.754639,61.119678 146.107666,61.046379 
	C151.183212,60.960915 156.264648,61.225151 161.643600,61.616867 
z"/>
<path fill="#CBAAD7" opacity="1.000000" stroke="none" 
	d="
M74.833427,62.366623 
	C81.242767,62.243294 87.652107,62.119965 94.529793,62.001484 
	C95.025681,62.418259 95.053230,62.830185 95.064560,63.551315 
	C88.687279,63.576771 82.326218,63.293018 75.382080,62.887115 
	C74.799004,62.764969 74.833427,62.366623 74.833427,62.366623 
z"/>
<path fill="#CBAAD7" opacity="1.000000" stroke="none" 
	d="
M63.905312,63.115913 
	C64.037865,62.759632 64.283119,62.460762 64.782440,62.018932 
	C65.036514,61.875969 65.130112,62.138664 65.114777,62.463638 
	C65.099449,62.788609 65.020203,63.179848 64.814438,63.124359 
	C64.608673,63.068874 64.190178,62.988007 64.190178,62.988007 
	C64.190178,62.988007 64.018005,63.173325 63.905312,63.115913 
z"/>
<path fill="#E9DAEE" opacity="1.000000" stroke="none" 
	d="
M162.647064,163.157593 
	C162.902435,163.155853 162.963867,163.322311 163.060364,163.752625 
	C163.095413,164.016479 162.703873,164.255081 162.476501,164.276733 
	C162.317139,163.974167 162.385147,163.649963 162.647064,163.157593 
z"/>
<path fill="#E9DAEE" opacity="1.000000" stroke="none" 
	d="
M159.945465,65.525284 
	C160.673721,64.427963 161.439957,63.727875 162.533173,62.999725 
	C162.909088,74.349228 162.958038,85.726791 162.919495,97.568016 
	C162.831985,98.031670 162.352570,98.017670 162.115921,97.979019 
	C161.910950,89.702827 162.093796,81.461388 161.881622,73.230141 
	C161.818466,70.779587 160.647064,68.357590 159.945465,65.525284 
z"/>
<path fill="#FFFFFF" opacity="1.000000" stroke="none" 
	d="
M65.020203,63.179848 
	C65.020203,63.179848 65.099449,62.788609 65.061829,62.592625 
	C68.000237,62.364319 70.976257,62.331997 74.392853,62.333149 
	C74.833427,62.366623 74.799004,62.764969 74.917778,62.925865 
	C72.200974,64.715164 69.365402,66.343559 66.258720,68.252045 
	C65.346581,67.306114 64.705559,66.080109 64.305305,64.320457 
	C64.751312,63.621349 64.909355,63.419029 65.020203,63.179848 
z"/>
<path fill="#FFFFFF" opacity="1.000000" stroke="none" 
	d="
M65.369980,70.951920 
	C65.032074,70.527893 65.023964,69.970329 65.510742,69.432068 
	C65.903679,69.907051 65.801727,70.362717 65.369980,70.951920 
z"/>
<path fill="#FCFBFD" opacity="1.000000" stroke="none" 
	d="
M64.814438,63.124359 
	C64.909355,63.419029 64.751312,63.621349 64.376678,63.882294 
	C64.162224,63.813545 64.117165,63.649307 64.131142,63.236534 
	C64.190178,62.988007 64.608673,63.068874 64.814438,63.124359 
z"/>
</svg>